<svg aria-hidden="true" style="position: absolute; width: 0; height: 0; overflow: hidden;"
    version="1.1" xmlns="http://www.w3.org/2000/svg" xmlns:xlink="http://www.w3.org/1999/xlink">
    <defs>
        <symbol id="icon-arrow" viewBox="0 0 32 32">
            <path
                d="M26.020 3.149c-0.145-1.029-1.096-1.747-2.126-1.602l-16.776 2.358c-1.029 0.145-1.747 1.097-1.602 2.126s1.097 1.747 2.126 1.602l14.912-2.096 2.096 14.912c0.145 1.029 1.096 1.747 2.126 1.602s1.747-1.097 1.602-2.126l-2.358-16.776zM5.268 31.604l20.391-27.060-3.007-2.266-20.391 27.060 3.007 2.266z"></path>
        </symbol>
        <symbol id="icon-arrow-down" viewBox="0 0 32 32">
            <path stroke-linejoin="round" stroke-linecap="round" stroke-miterlimit="4"
                stroke-width="3.2" d="M8 12l8 8 8-8"></path>
        </symbol>
        <symbol id="icon-check" viewBox="0 0 32 32">
            <path
                d="M8 13.333l-2.667 2.667 8 8 13.333-13.333-2.667-2.667-10.667 10.667-5.333-5.333z"></path>
        </symbol>
        <symbol id="icon-clock" viewBox="0 0 32 32">
            <path stroke-linejoin="round" stroke-linecap="round" stroke-miterlimit="4"
                stroke-width="2.4"
                d="M16 29.333c7.364 0 13.333-5.969 13.333-13.333s-5.97-13.333-13.333-13.333c-7.364 0-13.333 5.97-13.333 13.333s5.97 13.333 13.333 13.333z"></path>
            <path stroke-linejoin="round" stroke-linecap="round" stroke-miterlimit="4"
                stroke-width="2.4" d="M16 8v8l5.333 2.667"></path>
        </symbol>
        <symbol id="icon-close" viewBox="0 0 32 32">
            <path stroke-linejoin="round" stroke-linecap="round" stroke-miterlimit="4"
                stroke-width="2.5" d="M24 8l-16 16"></path>
            <path stroke-linejoin="round" stroke-linecap="round" stroke-miterlimit="4"
                stroke-width="2.5" d="M8 8l16 16"></path>
        </symbol>
        <symbol id="icon-eye" viewBox="0 0 32 32">
            <path stroke-linejoin="round" stroke-linecap="round" stroke-miterlimit="4"
                stroke-width="3.2"
                d="M1.333 16c0 0 5.333-10.667 14.667-10.667s14.667 10.667 14.667 10.667-5.333 10.667-14.667 10.667c-9.333 0-14.667-10.667-14.667-10.667z"></path>
            <path stroke-linejoin="round" stroke-linecap="round" stroke-miterlimit="4"
                stroke-width="3.2"
                d="M16 20c2.209 0 4-1.791 4-4s-1.791-4-4-4c-2.209 0-4 1.791-4 4s1.791 4 4 4z"></path>
        </symbol>
        <symbol id="icon-eye-off" viewBox="0 0 32 32">
            <path stroke-linejoin="round" stroke-linecap="round" stroke-miterlimit="4"
                stroke-width="3.2"
                d="M23.92 23.92c-2.279 1.737-5.054 2.7-7.92 2.747-9.333 0-14.667-10.667-14.667-10.667 1.659-3.091 3.959-5.791 6.747-7.92M13.2 5.653c0.918-0.215 1.857-0.322 2.8-0.32 9.333 0 14.667 10.667 14.667 10.667-0.809 1.514-1.775 2.94-2.88 4.253M18.827 18.827c-0.366 0.393-0.808 0.708-1.298 0.927s-1.020 0.336-1.557 0.346c-0.537 0.009-1.071-0.089-1.569-0.291s-0.95-0.501-1.33-0.88c-0.38-0.38-0.679-0.832-0.88-1.33s-0.3-1.032-0.29-1.569c0.009-0.537 0.127-1.067 0.346-1.558s0.534-0.932 0.927-1.298"></path>
            <path stroke-linejoin="round" stroke-linecap="round" stroke-miterlimit="4"
                stroke-width="3.2" d="M1.333 1.333l29.333 29.333"></path>
        </symbol>
        <symbol id="icon-like" viewBox="0 0 32 32">
            <path stroke-linejoin="round" stroke-linecap="round" stroke-miterlimit="4"
                stroke-width="2.4615"
                d="M27.787 6.147c-0.681-0.681-1.49-1.222-2.379-1.591s-1.844-0.559-2.807-0.559-1.917 0.19-2.807 0.559c-0.89 0.369-1.699 0.909-2.38 1.591l-1.413 1.413-1.413-1.413c-1.376-1.376-3.241-2.148-5.187-2.148s-3.811 0.773-5.187 2.148c-1.376 1.376-2.148 3.241-2.148 5.187s0.773 3.811 2.148 5.187l11.787 11.787 11.787-11.787c0.681-0.681 1.222-1.49 1.591-2.38s0.559-1.844 0.559-2.807-0.19-1.917-0.559-2.807c-0.369-0.89-0.909-1.699-1.591-2.38z"></path>
        </symbol>
        <symbol id="icon-question" viewBox="0 0 32 32">
            <path
                d="M11.294 10c0-2.206 1.688-4 3.765-4h1.882c2.076 0 3.765 1.794 3.765 4v0.225c0 1.363-0.653 2.631-1.729 3.362l-2.482 1.694c-0.729 0.498-1.328 1.182-1.744 1.99s-0.633 1.714-0.633 2.635v0.094c0 1.106 0.841 2 1.882 2s1.882-0.894 1.882-2v-0.088c0-0.512 0.247-0.987 0.647-1.262l2.482-1.694c2.153-1.475 3.459-4.006 3.459-6.731v-0.225c0-4.419-3.371-8-7.529-8h-1.882c-4.159 0-7.529 3.581-7.529 8 0 1.106 0.841 2 1.882 2s1.882-0.894 1.882-2zM16 30c0.624 0 1.223-0.263 1.664-0.732s0.689-1.105 0.689-1.768c0-0.663-0.248-1.299-0.689-1.768s-1.040-0.732-1.664-0.732-1.223 0.263-1.664 0.732c-0.441 0.469-0.689 1.105-0.689 1.768s0.248 1.299 0.689 1.768 1.040 0.732 1.664 0.732z"></path>
        </symbol>
        <symbol id="icon-star" viewBox="0 0 32 32">
            <path stroke-linejoin="miter" stroke-linecap="butt" stroke-miterlimit="4"
                stroke-width="2.4"
                d="M12.4 9.394l3.6-6.822 3.6 6.822c0.318 0.603 0.899 1.025 1.571 1.141l7.601 1.315-5.376 5.532c-0.475 0.489-0.697 1.171-0.6 1.846l1.098 7.635-6.922-3.404c-0.612-0.301-1.329-0.301-1.941 0l-6.922 3.404 1.098-7.635c0.097-0.675-0.125-1.357-0.6-1.846l-5.376-5.532 7.601-1.315c0.672-0.116 1.252-0.538 1.571-1.141zM29.035 11.579v0zM7.767 27.031c0 0 0 0 0 0h-0z"></path>
        </symbol>
        <symbol id="icon-user" viewBox="0 0 32 32">
            <path
                d="M16 5.333c1.415 0 2.771 0.562 3.771 1.562s1.562 2.357 1.562 3.771-0.562 2.771-1.562 3.771c-1 1-2.357 1.562-3.771 1.562s-2.771-0.562-3.771-1.562c-1-1-1.562-2.357-1.562-3.771s0.562-2.771 1.562-3.771c1-1 2.357-1.562 3.771-1.562zM16 18.667c5.893 0 10.667 2.387 10.667 5.333v2.667h-21.333v-2.667c0-2.947 4.773-5.333 10.667-5.333z"></path>
        </symbol>
        <symbol id="icon-users" viewBox="0 0 32 32">
            <path
                d="M21.424 22.683v2.519h-17.632v-2.519c0 0 0-5.038 8.816-5.038s8.816 5.038 8.816 5.038zM17.016 10.719c0-0.872-0.258-1.724-0.743-2.449s-1.173-1.29-1.978-1.623c-0.805-0.334-1.692-0.421-2.547-0.251s-1.64 0.59-2.257 1.206c-0.616 0.616-1.036 1.402-1.206 2.257s-0.083 1.741 0.251 2.547c0.334 0.805 0.899 1.494 1.623 1.978s1.577 0.743 2.449 0.743c1.169 0 2.29-0.464 3.117-1.291s1.291-1.948 1.291-3.117zM21.348 17.646c0.774 0.599 1.408 1.361 1.856 2.231s0.7 1.828 0.738 2.807v2.519h5.038v-2.519c0 0 0-4.572-7.632-5.038zM20.164 6.311c-0.867-0.005-1.715 0.254-2.431 0.743 0.765 1.069 1.176 2.35 1.176 3.665s-0.411 2.596-1.176 3.665c0.716 0.489 1.564 0.748 2.431 0.743 1.169 0 2.29-0.464 3.117-1.291s1.291-1.948 1.291-3.117-0.464-2.29-1.291-3.117c-0.827-0.827-1.948-1.291-3.117-1.291z"></path>
        </symbol>
        <symbol id="icon-burger" viewBox="0 0 32 32">
            <path
                d="M3.2 5.12c-0.005-0-0.012-0-0.018-0-0.707 0-1.28 0.573-1.28 1.28s0.573 1.28 1.28 1.28c0.006 0 0.013-0 0.019-0h25.599c0.005 0 0.012 0 0.018 0 0.707 0 1.28-0.573 1.28-1.28s-0.573-1.28-1.28-1.28c-0.006 0-0.013 0-0.019 0h-25.599zM3.2 14.72c-0.005-0-0.012-0-0.018-0-0.707 0-1.28 0.573-1.28 1.28s0.573 1.28 1.28 1.28c0.006 0 0.013-0 0.019-0h25.599c0.005 0 0.012 0 0.018 0 0.707 0 1.28-0.573 1.28-1.28s-0.573-1.28-1.28-1.28c-0.006 0-0.013 0-0.019 0h-25.599zM3.2 24.32c-0.005-0-0.012-0-0.018-0-0.707 0-1.28 0.573-1.28 1.28s0.573 1.28 1.28 1.28c0.006 0 0.013-0 0.019-0h25.599c0.005 0 0.012 0 0.018 0 0.707 0 1.28-0.573 1.28-1.28s-0.573-1.28-1.28-1.28c-0.006 0-0.013 0-0.019 0h-25.599z"></path>
        </symbol>
    </defs>
</svg>
    